# AST/ASF file generated using VICON BodyLanguage
# -----------------------------------------------
:version 1.10
:name VICON
:units
  mass 1.0
  length 0.45
  angle deg
:documentation
   .ast/.asf automatically generated from VICON data using
   VICON BodyBuilder and BodyLanguage model FoxedUp or BRILLIANT.MOD
:root
   order TX TY TZ RX RY RZ
   axis XYZ
   position 0 0 0  
   orientation 0 0 0 
:bonedata
  begin
     id 1 
     name lhipjoint
     direction 0.611804 -0.747784 0.257906 
     length 2.29243 
     axis 0 0 0  XYZ
  end
  begin
     id 2 
     name lfemur
     direction 0.34202 -0.939693 0  
     length 7.31159  
     axis 0 0 20  XYZ
    dof rx ry rz
    limits (-160.0 20.0)
           (-70.0 70.0)
           (-60.0 70.0)
  end
  begin
     id 3 
     name ltibia
     direction 0.34202 -0.939693 0   
     length 7.33391   
     axis 0 0 20   XYZ
    dof rx
    limits (-10.0 170.0)
  end
  begin
     id 4 
     name lfoot
     direction 0.122263 -0.335914 0.933924   
     length 1.76083   
     axis -90 7.62852e-016 20   XYZ
    dof rx rz
    limits (-45.0 90.0)
           (-70.0 20.0)
  end
  begin
     id 5 
     name ltoes
     direction 1.53533e-011 -4.2177e-011 1   
     length 0.879206   
     axis -90 7.62852e-016 20   XYZ
    dof rx
    limits (-90.0 20.0)
  end
  begin
     id 6 
     name rhipjoint
     direction -0.646469 -0.721248 0.248754   
     length 2.37677  
     axis 0 0 0  XYZ 
  end
  begin
     id 7 
     name rfemur
     direction -0.34202 -0.939693 0   
     length 7.18623   
     axis 0 0 -20   XYZ
    dof rx ry rz
    limits (-160.0 20.0)
           (-70.0 70.0)
           (-70.0 60.0)
  end
  begin
     id 8 
     name rtibia
     direction -0.34202 -0.939693 0   
     length 7.36567   
     axis 0 0 -20   XYZ
    dof rx
    limits (-10.0 170.0)
 end
 begin
     id 9 
     name rfoot
     direction -0.126681 -0.348054 0.928876   
     length 1.71902  
     axis -90 -7.62852e-016 -20   XYZ
    dof rx rz
    limits (-45.0 90.0)
           (-20.0 70.0)
  end
  begin
     id 10 
     name rtoes
     direction -1.53551e-011 -4.21898e-011 1   
     length 0.857792   
     axis -90 -7.62852e-016 -20   XYZ
    dof rx
    limits (-90.0 20.0)
  end
  begin
     id 11 
     name lowerback
     direction 0.0106509 0.999778 0.0181844   
     length 2.07668   
     axis 0 0 0   XYZ
    dof rx ry rz
    limits (-20.0 45.0)
           (-30.0 30.0)
           (-30.0 30.0)
  end
  begin
     id 12 
     name upperback
     direction -0.00456018 0.999989 -0.000590935   
     length 2.08011   
     axis 0 0 0   XYZ
    dof rx ry rz
    limits (-20.0 45.0)
           (-30.0 30.0)
           (-30.0 30.0)
  end
  begin
     id 13 
     name thorax
     direction -0.00910382 0.999916 -0.00923765   
     length 2.07397   
     axis 0 0 0   XYZ
    dof rx ry rz
    limits (-20.0 45.0)
           (-30.0 30.0)
           (-30.0 30.0)
  end
  begin
     id 14 
     name lowerneck
     direction 0.00171967 0.99778 0.0665733   
     length 1.67556   
     axis 0 0 0   XYZ
    dof rx ry rz
    limits (-20.0 45.0)
           (-30.0 30.0)
           (-30.0 30.0)
  end
  begin
     id 15 
     name upperneck
     direction -0.0143166 0.991302 -0.130828   
     length 1.68462   
     axis 0 0 0   XYZ
    dof rx ry rz
    limits (-20.0 45.0)
           (-30.0 30.0)
           (-30.0 30.0)
  end
  begin
     id 16
     name head
     direction -0.00606378 0.998665 -0.0512995  
     length 1.69269  
     axis 0 0 0   XYZ
    dof rx ry rz
    limits (-20.0 45.0)
           (-30.0 30.0)
           (-30.0 30.0)
  end
  begin
     id 17 
     name lclavicle
     direction 0.9638 0.179341 0.197297  
     length 4.12888  
     axis 0 0 0   XYZ
    dof ry rz
    limits (-20.0 10.0)
           (0.0 20.0)
  end
  begin
     id 18 
     name lhumerus
     direction 1 -4.48972e-011 -2.47351e-027   
     length 5.01834   
     axis -180 -30 -90   XYZ
    dof rx ry rz
    limits (-60.0 90.0)
           (-90.0 90.0)
           (-90.0 90.0)
  end
  begin
     id 19
     name lradius
     direction 1 -4.48965e-011 1.51591e-026   
     length 3.4869   
     axis -180 -30 -90   XYZ
    dof rx
    limits (-10.0 170.0)
  end
  begin
     id 20
     name lwrist
     direction 1 -4.48957e-011 2.70032e-026   
     length 1.74345   
     axis -1.81515e-014 90 90   XYZ
    dof ry
    limits (-180.0 0.0)
 end
  begin
     id 21 
     name lhand
     direction 1 -4.48951e-011 5.40064e-026   
     length 0.76799   
     axis -3.44607e-014 90 90   XYZ
    dof rx rz
    limits (-90.0 90.0)
           (-45.0 45.0)
  end
  begin
     id 22 
     name lfingers
     direction 1 -4.48971e-011 1.08013e-025   
     length 0.619174   
     axis -6.89214e-014 90 90   XYZ
    dof rx
    limits (0.0 90.0)
  end
  begin
     id 23
     name lthumb
     direction 0.707107 -6.34931e-011 0.707107   
     length 0.889013   
     axis -90 45 2.85299e-015   XYZ
    dof rx rz
    limits (-45.0 45.0)
           (-45.0 45.0)
  end
  begin
     id 24 
     name rclavicle
     direction -0.961409 0.252588 0.109054   
     length 4.04305  
     axis 0 0 0   XYZ 
    dof ry rz
    limits (-10.0 20.0)
           (-20.0 0.0)
  end
  begin
     id 25 
     name rhumerus
     direction -1 -4.4897e-011 1.33872e-017  
     length 4.70164   
     axis -180 30 90   XYZ
    dof rx ry rz
    limits (-90.0 60.0)
           (-90.0 90.0)
           (-90.0 90.0)
  end
  begin
     id 26 
     name rradius
     direction -1 -4.48954e-011 1.83844e-026   
     length 3.49911   
     axis -180 30 90   XYZ
    dof rx
    limits (-10.0 170.0)
  end
  begin
     id 27 
     name rwrist
     direction -1 -4.49008e-011 2.70032e-026   
     length 1.74955   
     axis -1.81515e-014 -90 -90   XYZ
    dof ry
    limits (-180.0 0.0)
  end
  begin
     id 28
     name rhand
     direction -1 -4.48916e-011 5.40064e-026   
     length 0.739335   
     axis -3.44607e-014 -90 -90   XYZ
    dof rx rz
    limits (-90.0 90.0)
           (-45.0 45.0)
  end
  begin
     id 29
     name rfingers
     direction -1 -4.48987e-011 1.08013e-025   
     length 0.596071   
     axis -6.89214e-014 -90 -90   XYZ
    dof rx
    limits (0.0 90.0)
  end
  begin
     id 30
     name rthumb
     direction -0.707107 -6.34935e-011 0.707107   
     length 0.855843   
     axis -90 -45 -2.85299e-015   XYZ
    dof rx rz
    limits (-45.0 45.0)
           (-45.0 45.0)
  end
:hierarchy
  begin
    root lhipjoint rhipjoint lowerback
    lhipjoint lfemur
    lfemur ltibia
    ltibia lfoot
    lfoot ltoes
    rhipjoint rfemur
    rfemur rtibia
    rtibia rfoot
    rfoot rtoes
    lowerback upperback
    upperback thorax
    thorax lowerneck lclavicle rclavicle
    lowerneck upperneck
    upperneck head
    lclavicle lhumerus
    lhumerus lradius
    lradius lwrist
    lwrist lhand lthumb
    lhand lfingers
    rclavicle rhumerus
    rhumerus rradius
    rradius rwrist
    rwrist rhand rthumb
    rhand rfingers
  end

#!OML:ASF I:\salsa\salsa 7_09\Patient 1\Session 1\dancermale.ASF
:FULLY-SPECIFIED
:DEGREES
264
root 1.68629 16.9582 -0.462774 -210.537 131.292 -200.458
lowerback 24.0442 9.36324 14.5341
upperback 1.01838 16.821 3.73908
thorax -9.07086 7.50843 -8.51277
lowerneck -3.11882 -0.209693 5.6444
upperneck 14.4949 0.319862 -6.07381
head 4.85585 0.191236 -2.79702
rclavicle 8.08929e-014 6.36111e-014
rhumerus -42.5896 9.2783 -100.772
rradius 90.817
rwrist 3.83243
rhand -29.7542 0.680082
rfingers 7.12502
rthumb -3.08005 -29.2774
lclavicle 8.08929e-014 6.36111e-014
lhumerus -38.2185 -17.7101 102.458
lradius 87.9385
lwrist 43.9466
lhand -24.807 56.3772
lfingers 7.12502
lthumb 1.69796 86.3502
rfemur 8.00426 24.5089 45.2632
rtibia 35.711
rfoot -26.0553 13.2042
rtoes 22.6767
lfemur -0.522923 32.3724 14.4424
ltibia 56.2688
lfoot -15.3607 9.28906
ltoes 0.0650166
265
root 1.7746 16.9739 -0.485851 -210.533 131.046 -200.775
lowerback 24.159 9.41112 15.0919
upperback 0.796454 17.0714 3.65756
thorax -9.15671 7.57704 -8.95718
lowerneck -3.02426 -0.438816 5.65751
upperneck 14.5787 0.0216957 -6.07904
head 4.84684 0.0497514 -2.81589
rclavicle -6.39652e-014 5.32743e-014
rhumerus -41.8913 8.83163 -101.989
rradius 90.5194
rwrist 2.30128
rhand -29.9825 -0.223631
rfingers 7.12502
rthumb -3.30055 -30.1778
lclavicle -6.39652e-014 5.32743e-014
lhumerus -37.9822 -17.6581 101.815
lradius 87.8314
lwrist 44.7065
lhand -25.6454 57.4955
lfingers 7.12502
lthumb 0.88824 87.4734
rfemur 8.20514 24.0921 44.8186
rtibia 34.7959
rfoot -25.9438 13.2695
rtoes 21.2284
lfemur -1.63923 30.9555 13.2034
ltibia 54.7601
lfoot -15.8089 9.27869
ltoes -3.77756
266
root 1.87958 16.9863 -0.509382 -210.66 130.703 -200.974
lowerback 24.3648 9.45779 15.7345
upperback 0.647287 17.3459 3.52234
thorax -9.15455 7.66526 -9.50841
lowerneck -3.08587 -0.723562 5.65453
upperneck 14.8506 -0.359498 -6.0072
head 4.91758 -0.129387 -2.81483
rclavicle -3.8235e-014 -4.92986e-014
rhumerus -41.2714 8.35229 -103.169
rradius 90.1775
rwrist 0.545051
rhand -30.2572 -1.10569
rfingers 7.12502
rthumb -3.56586 -31.0556
lclavicle -3.8235e-014 -4.92986e-014
lhumerus -37.6163 -17.726 101.151
lradius 87.5405
lwrist 45.4595
lhand -25.6681 58.0908
lfingers 7.12502
lthumb 0.866343 88.0688
rfemur 8.4987 23.4606 44.2407
rtibia 34.1892
rfoot -26.0281 13.4328
rtoes 18.9887
lfemur -2.06681 30.0453 12.3575
ltibia 53.0718
lfoot -16.1481 9.26206
ltoes -6.39016
267
root 1.99742 16.9862 -0.532554 -211.224 129.632 -201.45
lowerback 24.4482 9.26788 16.4221
upperback 0.580593 17.2907 3.35598
thorax -9.04338 7.61515 -10.0163
lowerneck -3.24169 -1.04279 5.49715
upperneck 15.223 -0.797359 -5.77837
head 5.03474 -0.335162 -2.744
rclavicle -3.74647e-014 -1.19271e-014
rhumerus -40.8007 7.8782 -104.268
rradius 89.897
rwrist -1.54678
rhand -30.579 -1.76024
rfingers 7.12502
rthumb -3.87664 -31.7047
lclavicle -3.74647e-014 -1.19271e-014
lhumerus -37.1731 -17.9458 100.535
lradius 87.1224
lwrist 46.5222
lhand -25.5398 58.474
lfingers 7.12502
lthumb 0.99021 88.4515
rfemur 8.73101 22.1501 43.3378
rtibia 33.785
rfoot -26.0683 13.7109
rtoes 18.7957
lfemur -2.66403 28.7645 11.1047
ltibia 51.5451
lfoot -16.7409 9.14866
ltoes -7.16354
268
root 2.10303 16.9791 -0.578779 -211.637 129.074 -201.886
lowerback 24.7254 9.2169 17.3641
upperback 0.45953 17.5392 3.21661
thorax -8.96064 7.68901 -10.7143
lowerneck -3.22711 -1.4015 5.45698
upperneck 15.4218 -1.27856 -5.69071
head 5.06615 -0.562442 -2.73582
rclavicle 2.32795e-014 -5.80451e-014
rhumerus -40.4798 7.50269 -105.177
rradius 89.7196
rwrist -4.04631
rhand -31.038 -2.18677
rfingers 7.12502
rthumb -4.31979 -32.1227
lclavicle 2.32795e-014 -5.80451e-014
lhumerus -36.7182 -18.2854 100.139
lradius 86.9122
lwrist 48.1528
lhand -26.2527 59.5985
lfingers 7.12502
lthumb 0.301673 89.578
rfemur 8.70514 21.4677 42.7521
rtibia 33.8724
rfoot -25.8368 14.2648
rtoes 21.3558
lfemur -3.09547 28.1267 10.2413
ltibia 50.2365
lfoot -16.6587 9.27909
ltoes -8.87841
269
root 2.21056 16.9675 -0.627181 -212.225 128.608 -202.357
lowerback 25.1773 9.18238 18.3034
upperback 0.354112 17.8626 3.14964
thorax -8.95117 7.78882 -11.3838
lowerneck -3.21055 -1.76973 5.49779
upperneck 15.6731 -1.76 -5.71147
head 5.1116 -0.790339 -2.77577
rclavicle -7.73024e-014 -4.29375e-014
rhumerus -40.2466 7.28528 -105.924
rradius 89.532
rwrist -6.88606
rhand -31.6297 -2.55059
rfingers 7.12502
rthumb -4.89117 -32.4741
lclavicle -7.73024e-014 -4.29375e-014
lhumerus -36.2715 -18.7696 99.9536
lradius 86.8738
lwrist 50.2274
lhand -28.0096 61.3001
lfingers 7.12502
lthumb -1.39522 268.725
rfemur 8.87454 21.1505 42.5125
rtibia 34.1675
rfoot -25.5295 14.4697
rtoes 23.0431
lfemur -3.03835 27.6347 9.62916
ltibia 49.0229
lfoot -16.3354 9.0969
ltoes -10.3581
270
root 2.32428 16.9461 -0.680902 -212.888 128.189 -202.858
lowerback 25.591 9.11488 19.2438
upperback 0.35276 18.1411 3.16339
thorax -8.83122 7.89205 -11.9321
lowerneck -3.35466 -2.08824 5.42268
upperneck 15.9164 -2.1642 -5.80875
head 5.18641 -0.995246 -2.81899
rclavicle 2.6384e-014 -1.11319e-014
rhumerus -39.9113 7.43595 -106.492
rradius 89.3628
rwrist -9.95827
rhand -32.2064 -3.22965
rfingers 7.12502
rthumb -5.448 -33.1396
lclavicle 2.6384e-014 -1.11319e-014
lhumerus -35.5675 -19.1254 99.7992
lradius 86.6675
lwrist 51.516
lhand -28.826 61.8991
lfingers 7.12502
lthumb -2.18366 268.132
rfemur 8.89113 21.0232 42.4406
rtibia 35.0948
rfoot -25.589 14.1184
rtoes 21.832
lfemur -2.63566 27.2943 9.13995
ltibia 47.8973
lfoot -15.752 9.93174
ltoes -14.9796
271
root 2.4419 16.9159 -0.736336 -213.731 127.633 -203.449
lowerback 25.8921 8.94731 20.1311
upperback 0.154396 18.254 2.97292
thorax -8.31515 8.00316 -11.9296
lowerneck -3.55105 -2.36086 5.19009
upperneck 16.0216 -2.49238 -5.98118
head 5.23278 -1.18082 -2.85503
rclavicle 1.30134e-013 8.36883e-014
rhumerus -39.4977 7.94597 -106.773
rradius 89.3062
rwrist -12.9454
rhand -32.7002 -4.09581
rfingers 7.12502
rthumb -5.92478 -33.993
lclavicle 1.30134e-013 8.36883e-014
lhumerus -34.5531 -19.2654 99.7046
lradius 86.2776
lwrist 51.9708
lhand -28.7845 61.6739
lfingers 7.12502
lthumb -2.1436 268.357
rfemur 8.77389 20.9539 42.4812
rtibia 36.5841
rfoot -25.6024 13.3593
rtoes 18.8829
lfemur -1.98474 26.7772 8.63208
ltibia 46.8636
lfoot -15.0941 11.4896
ltoes -16.7982
272
root 2.55902 16.8782 -0.802694 -214.844 126.962 -204.126
lowerback 26.3912 8.67681 21.1291
upperback 0.276916 18.3151 3.01855
thorax -8.12771 8.02916 -12.3607
lowerneck -3.57035 -2.66644 5.09969
upperneck 16.0135 -2.86917 -6.18266
head 5.20839 -1.38203 -2.92136
rclavicle -5.13004e-014 4.83047e-014
rhumerus -39.2331 8.26088 -106.95
rradius 89.3743
rwrist -15.7804
rhand -33.0798 -4.72002
rfingers 7.12502
rthumb -6.29122 -34.6066
lclavicle -5.13004e-014 4.83047e-014
lhumerus -33.5493 -19.6222 99.679
lradius 85.8092
lwrist 52.2655
lhand -28.9129 61.4543
lfingers 7.12502
lthumb -2.26762 268.578
rfemur 8.43105 20.6291 42.3927
rtibia 38.7166
rfoot -25.3776 12.9514
rtoes 16.9187
lfemur -0.994865 26.0363 8.0973
ltibia 45.9057
lfoot -15.4504 12.7368
ltoes -17.868
